<svg xmlns="http://www.w3.org/2000/svg" width="14" height="12" viewBox="0 0 14 12"><g><g><g><g><path fill="#9ea1b1" d="M.719 6.595h11.53c.13 0 .242.048.337.143a.462.462 0 0 1 .143.338v.96c0 .13-.048.243-.143.338a.462.462 0 0 1-.338.143H.718a.462.462 0 0 1-.337-.143.462.462 0 0 1-.143-.337v-.961c0-.13.048-.243.143-.338a.462.462 0 0 1 .338-.143z"/></g><g><path fill="#9ea1b1" d="M.719 9.478h8.647c.13 0 .242.048.338.143a.462.462 0 0 1 .142.337v.961c0 .13-.047.243-.142.338a.462.462 0 0 1-.338.143H.719a.462.462 0 0 1-.338-.143.462.462 0 0 1-.143-.338v-.96c0-.13.048-.243.143-.338a.462.462 0 0 1 .338-.143z"/></g><g><path fill="#9ea1b1" d="M13.547 2.61a.462.462 0 0 1-.338.142H.719A.462.462 0 0 1 .38 2.61a.462.462 0 0 1-.143-.338V1.31c0-.13.048-.243.143-.338A.463.463 0 0 1 .719.831h12.49c.13 0 .243.047.338.142a.462.462 0 0 1 .142.338v.96c0 .131-.047.244-.142.339z"/></g><g><path fill="#9ea1b1" d="M.719 3.713h9.608c.13 0 .242.048.337.143a.462.462 0 0 1 .143.338v.96c0 .13-.048.243-.143.338a.461.461 0 0 1-.337.143H.719a.462.462 0 0 1-.338-.143.462.462 0 0 1-.143-.338v-.96c0-.13.048-.243.143-.338a.462.462 0 0 1 .338-.143z"/></g></g></g></g></svg>