<svg xmlns="http://www.w3.org/2000/svg" width="49" height="50" viewBox="0 0 49 50"><g><g><path fill="#545769" d="M47.378 47.7h-1.622V2.293h1.622zm-30.813-3.243v-1.622h27.57v1.622zm-3.243 0V7.968a2.433 2.433 0 0 1 2.432-2.433h17.84a2.433 2.433 0 0 1 2.432 2.433v10.541h-1.622V7.968a.81.81 0 0 0-.81-.81h-17.84a.811.811 0 0 0-.81.81v36.49zm-8.11-1.622H11.7v1.622H5.213zm-1.62 4.866H1.968V5.535h1.622zM11.7 12.022v3.244H5.213v-3.244zm-6.487 27.57H11.7v1.622H5.213zm0-3.244H11.7v1.622H5.213zM11.7 18.51H5.213v-1.621H11.7zM5.213 33.105H11.7v1.622H5.213zm0-11.352V20.13H11.7v1.622zm6.487 3.243H5.213v-1.621H11.7zM5.213 28.24v-1.622H11.7v1.622zm6.487 3.243H5.213v-1.622H11.7zm29.604-25.68h1.38a.824.824 0 0 0 .323-.068l.319-.14a.649.649 0 0 1 .784.18.403.403 0 0 1 .025.11.372.372 0 0 1-.25.302l-.673.292a.811.811 0 0 0-.415.405 6.008 6.008 0 0 1-5.15 3.222V7.968a4.003 4.003 0 0 0-.136-.99 6.502 6.502 0 0 1 3.793-1.175zM16.565 37.97h27.57v3.244h-27.57zm21.083-21.082h6.487v1.621h-6.487zm6.487-6.487h-2.352a6.926 6.926 0 0 0 2.352-2.554zm-6.487 1.621h6.487v3.244h-6.487zm6.487 21.774v2.552h-2.352a6.923 6.923 0 0 0 2.352-2.552zM34.656 35.7l.671-.293A.81.81 0 0 0 35.74 35a6.082 6.082 0 0 1 5.564-3.247h1.38a.803.803 0 0 0 .323-.067l.33-.144a.7.7 0 0 1 .54 0c.108.04.195.12.243.224.063.162-.081.308-.237.376l-.67.293a.811.811 0 0 0-.413.405 6.082 6.082 0 0 1-5.565 3.248h-1.379a.803.803 0 0 0-.324.067l-.33.144a.703.703 0 0 1-.54 0 .427.427 0 0 1-.242-.224c-.063-.165.08-.312.236-.376zM16.566 20.13h27.569v9.798a2.318 2.318 0 0 0-1.446.123l-.176.076h-1.209a7.676 7.676 0 0 0-6.9 3.908l-.397.173a1.93 1.93 0 0 0-1.185 2.14H16.565zm0-3.243h16.216v1.621H16.565zm0-4.866h16.216v3.244H16.565zm16.216-1.621H16.565V8.779h16.217zM48.19.67h-3.244a.81.81 0 0 0-.81.81v2.506a2.354 2.354 0 0 0-1.446.116l-.176.078h-1.209c-1.6-.009-3.169.453-4.508 1.33a4.036 4.036 0 0 0-3.203-1.597H15.754A4.059 4.059 0 0 0 11.7 7.968v2.433H5.213V4.725a.81.81 0 0 0-.81-.811H1.158a.811.811 0 0 0-.811.81v43.787c0 .448.363.811.81.811h3.244a.81.81 0 0 0 .81-.81v-2.433h38.923v2.432c0 .448.363.811.81.811h3.244c.448 0 .81-.363.81-.81V1.481a.811.811 0 0 0-.81-.812z"/></g></g></svg>