<svg xmlns="http://www.w3.org/2000/svg" width="25" height="49" viewBox="0 0 25 49"><g><g><path fill="#545769" d="M12.816 28.38a6.49 6.49 0 0 1 4.371 1.693l-9.763 8.361a6.48 6.48 0 0 1 5.393-10.055zm5.426 2.92a6.484 6.484 0 0 1 .307 6.647 6.477 6.477 0 0 1-5.715 3.406c-1.607 0-3.16-.6-4.35-1.687zM4.725 34.867a8.11 8.11 0 0 0 16.218 0 8.118 8.118 0 0 0-8.109-8.11 8.11 8.11 0 0 0-8.11 8.11zm0-15.404h7.9a7.641 7.641 0 0 0 7.482-6.69 7.334 7.334 0 0 0-1.955-5.603 7.299 7.299 0 0 0-5.318-2.303h-.135a7.46 7.46 0 0 0-6.652 4.719 6.86 6.86 0 0 0-.508 2.576H2.293A10.677 10.677 0 0 1 12.324 1.637a10.539 10.539 0 0 1 7.783 2.892 10.55 10.55 0 0 1 3.268 7.633v34.87H2.293V21.893a2.433 2.433 0 0 1 2.432-2.431zm19.459 29.191c.449 0 .814-.364.814-.814V12.162c0-3.326-1.367-6.508-3.771-8.806A12.184 12.184 0 0 0 12.244.014C5.672.405.572 5.901.67 12.49v.487c0 .445.363.809.814.809h4.922a.8.8 0 0 0 .606-.279.813.813 0 0 0 .197-.637 5.148 5.148 0 0 1 .338-2.678 5.821 5.821 0 0 1 5.18-3.701 5.675 5.675 0 0 1 4.252 1.789 5.7 5.7 0 0 1 1.511 4.36 5.962 5.962 0 0 1-5.865 5.2h-7.9A4.064 4.064 0 0 0 .67 21.895V47.84c0 .45.363.814.814.814z"/><path fill="none" stroke="#000" stroke-miterlimit="50" d="M12.816 28.38a6.49 6.49 0 0 1 4.371 1.693l-9.763 8.361a6.48 6.48 0 0 1 5.393-10.055zm5.426 2.92a6.484 6.484 0 0 1 .307 6.647 6.477 6.477 0 0 1-5.715 3.406c-1.607 0-3.16-.6-4.35-1.687zM4.725 34.867a8.11 8.11 0 0 0 16.218 0 8.118 8.118 0 0 0-8.109-8.11 8.11 8.11 0 0 0-8.11 8.11zm0-15.404h7.9a7.641 7.641 0 0 0 7.482-6.69 7.334 7.334 0 0 0-1.955-5.603 7.299 7.299 0 0 0-5.318-2.303h-.135a7.46 7.46 0 0 0-6.652 4.719 6.86 6.86 0 0 0-.508 2.576H2.293A10.677 10.677 0 0 1 12.324 1.637a10.539 10.539 0 0 1 7.783 2.892 10.55 10.55 0 0 1 3.268 7.633v34.87H2.293V21.893a2.433 2.433 0 0 1 2.432-2.431zm19.459 29.191c.449 0 .814-.364.814-.814V12.162c0-3.326-1.367-6.508-3.771-8.806A12.184 12.184 0 0 0 12.244.014C5.672.405.572 5.901.67 12.49v.487c0 .445.363.809.814.809h4.922a.8.8 0 0 0 .606-.279.813.813 0 0 0 .197-.637 5.148 5.148 0 0 1 .338-2.678 5.821 5.821 0 0 1 5.18-3.701 5.675 5.675 0 0 1 4.252 1.789 5.7 5.7 0 0 1 1.511 4.36 5.962 5.962 0 0 1-5.865 5.2h-7.9A4.064 4.064 0 0 0 .67 21.895V47.84c0 .45.363.814.814.814z"/></g></g></svg>