<svg xmlns="http://www.w3.org/2000/svg" width="17" height="13" viewBox="0 0 17 13"><g><g><path fill="#9ea1b1" d="M9.401 2.264a1.026 1.026 0 0 1 1.74.875c.395.279.865.537 1.37.746.178.073.35.14.516.196l-.02-1.445.086.036c.786.328 1.492.772 1.946 1.226l.02.02c.43.441.477.723.44.809-.112.268-1.322.507-3.158-.259a7.088 7.088 0 0 1-1.448-.805c-.013.017-.03.033-.043.05a1.025 1.025 0 0 1-1.448-1.448zM4.775 12.376a1.24 1.24 0 0 0 1.753 0l6.002-6.002c.172-.172.305-.378.391-.597a6.31 6.31 0 0 0 1.707.256c1.279-.007 1.703-.567 1.842-.902.14-.331.239-1.027-.66-1.942l-.029-.03c-.557-.556-1.365-1.07-2.283-1.451-.17-.07-.338-.133-.504-.193v-.01A1.357 1.357 0 0 0 11.655.168L8.059.117a1.749 1.749 0 0 0-1.27.517L.786 6.636a1.24 1.24 0 0 0 0 1.753z"/></g></g></svg>