<svg xmlns="http://www.w3.org/2000/svg" width="60" height="43" viewBox="0 0 60 43"><g><g><path fill="#545769" d="M19.186 22.468v-1.633H3.846v1.633zm32.628 5.67h1.475v2.593h-1.475zm2.293 4.225c.45 0 .815-.365.815-.816v-4.225a.816.816 0 0 0-.815-.817h-3.109a.816.816 0 0 0-.816.817v4.225c0 .451.365.816.816.816zm-9.906-6.533h11.432v7.21H44.2zm12.246 8.842a.817.817 0 0 0 .819-.816v-8.843a.817.817 0 0 0-.819-.816H43.385a.816.816 0 0 0-.815.816v8.843c0 .45.366.816.815.816zm-48.51-2.788A2.12 2.12 0 0 1 10.056 34a2.12 2.12 0 0 1-2.117 2.115A2.118 2.118 0 0 1 5.822 34c0-1.166.95-2.116 2.116-2.116zm0 5.864A3.754 3.754 0 0 0 11.688 34a3.755 3.755 0 0 0-3.75-3.749A3.754 3.754 0 0 0 4.19 34a3.754 3.754 0 0 0 3.748 3.748zM1.585 17.732V6.8a4.915 4.915 0 0 1 4.91-4.911h11.031v3.13c-4.554.413-8.134 4.253-8.134 8.914 0 .45.365.816.816.816h7.318v2.982zm0 1.632h16.758a.816.816 0 0 0 .816-.816v-4.614a.816.816 0 0 0-.816-.817h-7.274c.409-3.652 3.514-6.501 7.274-6.501a.816.816 0 0 0 .816-.816V1.89H37.87c.422 5.84 5.305 10.462 11.25 10.462a.816.816 0 0 0 .819-.816V1.89h3.289a4.917 4.917 0 0 1 4.912 4.91v10.932H29.86a.816.816 0 0 0-.818.816v6.465c0 .451.365.817.818.817h9.612c-.416 4.938-4.569 8.83-9.612 8.83a.817.817 0 0 0-.818.816v5.02H6.494a4.915 4.915 0 0 1-4.91-4.91zm29.092 21.132v-4.233c5.842-.42 10.465-5.305 10.465-11.25a.816.816 0 0 0-.817-.816h-9.648v-4.833h27.463v16.222a4.917 4.917 0 0 1-4.912 4.91zm22.55 1.633a6.551 6.551 0 0 0 6.545-6.543V6.8A6.551 6.551 0 0 0 53.227.257h-4.108a.816.816 0 0 0-.814.816v9.613c-4.94-.416-8.832-4.568-8.832-9.613a.816.816 0 0 0-.815-.816H6.494A6.55 6.55 0 0 0-.049 6.801v28.785a6.55 6.55 0 0 0 6.543 6.543z"/><path fill="none" stroke="#000" stroke-miterlimit="50" d="M19.186 22.468v-1.633H3.846v1.633zm32.628 5.67h1.475v2.593h-1.475zm2.293 4.225c.45 0 .815-.365.815-.816v-4.225a.816.816 0 0 0-.815-.817h-3.109a.816.816 0 0 0-.816.817v4.225c0 .451.365.816.816.816zm-9.906-6.533h11.432v7.21H44.2zm12.246 8.842a.817.817 0 0 0 .819-.816v-8.843a.817.817 0 0 0-.819-.816H43.385a.816.816 0 0 0-.815.816v8.843c0 .45.366.816.815.816zm-48.51-2.788A2.12 2.12 0 0 1 10.056 34a2.12 2.12 0 0 1-2.117 2.115A2.118 2.118 0 0 1 5.822 34c0-1.166.95-2.116 2.116-2.116zm0 5.864A3.754 3.754 0 0 0 11.688 34a3.755 3.755 0 0 0-3.75-3.749A3.754 3.754 0 0 0 4.19 34a3.754 3.754 0 0 0 3.748 3.748zM1.585 17.732V6.8a4.915 4.915 0 0 1 4.91-4.911h11.031v3.13c-4.554.413-8.134 4.253-8.134 8.914 0 .45.365.816.816.816h7.318v2.982zm0 1.632h16.758a.816.816 0 0 0 .816-.816v-4.614a.816.816 0 0 0-.816-.817h-7.274c.409-3.652 3.514-6.501 7.274-6.501a.816.816 0 0 0 .816-.816V1.89H37.87c.422 5.84 5.305 10.462 11.25 10.462a.816.816 0 0 0 .819-.816V1.89h3.289a4.917 4.917 0 0 1 4.912 4.91v10.932H29.86a.816.816 0 0 0-.818.816v6.465c0 .451.365.817.818.817h9.612c-.416 4.938-4.569 8.83-9.612 8.83a.817.817 0 0 0-.818.816v5.02H6.494a4.915 4.915 0 0 1-4.91-4.91zm29.092 21.132v-4.233c5.842-.42 10.465-5.305 10.465-11.25a.816.816 0 0 0-.817-.816h-9.648v-4.833h27.463v16.222a4.917 4.917 0 0 1-4.912 4.91zm22.55 1.633a6.551 6.551 0 0 0 6.545-6.543V6.8A6.551 6.551 0 0 0 53.227.257h-4.108a.816.816 0 0 0-.814.816v9.613c-4.94-.416-8.832-4.568-8.832-9.613a.816.816 0 0 0-.815-.816H6.494A6.55 6.55 0 0 0-.049 6.801v28.785a6.55 6.55 0 0 0 6.543 6.543z"/></g></g></svg>