<svg xmlns="http://www.w3.org/2000/svg" width="25" height="49" viewBox="0 0 25 49"><g><g><path fill="#545769" d="M12.14 28.354c1.582 0 3.144.581 4.36 1.69L6.747 38.4a6.47 6.47 0 0 1 5.392-10.046zm5.418 2.917a6.473 6.473 0 1 1-5.405 10.045 6.452 6.452 0 0 1-4.348-1.688zm-5.405 11.665a8.101 8.101 0 0 0 8.101-8.1 8.11 8.11 0 0 0-8.101-8.101 8.1 8.1 0 1 0 0 16.201zM1.62 21.873a2.43 2.43 0 0 1 2.43-2.43h7.895c3.81-.049 7-2.9 7.474-6.68a7.33 7.33 0 0 0-1.951-5.6 7.308 7.308 0 0 0-5.316-2.302h-.137a7.454 7.454 0 0 0-6.643 4.716 6.888 6.888 0 0 0-.511 2.575H1.62A10.669 10.669 0 0 1 11.643 1.633a10.531 10.531 0 0 1 11.041 10.52v34.834H1.621V21.873zm21.874 26.735a.81.81 0 0 0 .81-.81V12.152A12.15 12.15 0 0 0 11.566.014C5 .406-.098 5.898.001 12.476v.486c0 .448.362.811.81.811h4.917a.81.81 0 0 0 .804-.917 5.19 5.19 0 0 1 .339-2.674 5.821 5.821 0 0 1 5.172-3.7 5.671 5.671 0 0 1 5.761 6.147 5.96 5.96 0 0 1-5.858 5.195H4.052A4.055 4.055 0 0 0 0 21.874v25.924c0 .447.362.81.81.81z"/></g></g></svg>