<svg xmlns="http://www.w3.org/2000/svg" width="40" height="49" viewBox="0 0 40 49"><g><g><path fill="#545769" d="M37.904 13.413a3.2 3.2 0 0 0-1.62-.451 37.46 37.46 0 0 0-.309-7.841.806.806 0 0 0-.723-.688c-5.185-.508-8.788-.508-13.973 0a.807.807 0 0 0-.723.688 37.458 37.458 0 0 0-.312 7.84h-.97a37.46 37.46 0 0 0-.309-7.84.81.81 0 0 0-.725-.688c-5.185-.508-8.783-.508-13.968 0a.806.806 0 0 0-.723.688 37.46 37.46 0 0 0-.309 7.84c-.57.004-1.13.159-1.62.45V3.242c0-.895.725-1.62 1.62-1.62h33.049c.895 0 1.62.725 1.62 1.62zM22.071 5.986c4.657-.418 7.723-.418 12.38 0a35.838 35.838 0 0 1 0 9.092c-4.657.418-7.723.418-12.38 0a35.845 35.845 0 0 1 0-9.093zm-17.006 0c4.657-.418 7.718-.418 12.375 0a35.838 35.838 0 0 1 0 9.092c-4.657.418-7.718.418-12.375 0a35.845 35.845 0 0 1 0-9.093zm32.84 28.49a3.199 3.199 0 0 0-1.62-.45H3.24c-.57.003-1.13.158-1.62.45V16.203c0-.895.725-1.62 1.62-1.62h.14c.049.452.107.906.173 1.36a.81.81 0 0 0 .723.689c2.585.254 3.567.38 6.175.38 2.608 0 5.211-.126 7.8-.38a.81.81 0 0 0 .723-.688c.067-.454.124-.908.172-1.361h1.247c.049.452.107.906.173 1.36a.81.81 0 0 0 .723.689c2.585.254 5.192.38 7.8.38 2.608 0 3.59-.126 6.18-.38a.81.81 0 0 0 .723-.688c.067-.454.124-.908.172-1.361h.14c.895 0 1.62.725 1.62 1.62zm0 9.27H1.616v-6.484c0-.895.725-1.62 1.62-1.62h33.049c.895 0 1.62.725 1.62 1.62zm0 3.24h-2.24v-1.624h2.24zm-34.049 0h-2.24v-1.624h2.24zM3.24 0A3.24 3.24 0 0 0 0 3.24v44.557c0 .447.363.81.81.81h3.861a.81.81 0 0 0 .81-.81v-2.435h28.564v2.43c0 .447.363.81.81.81h3.862a.81.81 0 0 0 .81-.81V3.24A3.24 3.24 0 0 0 36.287 0z"/></g></g></svg>