<svg xmlns="http://www.w3.org/2000/svg" width="17" height="17" viewBox="0 0 17 17"><defs><clipPath id="zdk8a"><path fill="#fff" d="M1.827 15.694V1.306h13.346v14.388zM9.175 2.89c-.286-.88-1.533-.88-1.82 0l-.822 2.534a.957.957 0 0 1-.91.66H2.959c-.926 0-1.312 1.187-.562 1.731L4.552 9.38a.956.956 0 0 1 .347 1.07l-.823 2.533c-.286.881.723 1.614 1.473 1.07l2.154-1.566a.957.957 0 0 1 1.125 0l2.155 1.566c.75.544 1.759-.189 1.472-1.07l-.823-2.533a.958.958 0 0 1 .348-1.07l2.154-1.566c.75-.544.365-1.73-.562-1.73H10.91a.957.957 0 0 1-.91-.661l-.824-2.534z"/></clipPath></defs><g><g><path fill="none" stroke="#8c8f9e" stroke-miterlimit="50" stroke-width="4" d="M9.175 2.89v0L10 5.422a.957.957 0 0 0 .91.66h2.663c.927 0 1.312 1.187.562 1.731L11.98 9.38a.958.958 0 0 0-.348 1.07l.823 2.533c.287.881-.722 1.614-1.472 1.07l-2.155-1.566a.957.957 0 0 0-1.125 0L5.55 14.053c-.75.544-1.759-.189-1.473-1.07L4.9 10.45a.956.956 0 0 0-.347-1.07L2.397 7.814c-.75-.544-.364-1.73.562-1.73h2.664a.957.957 0 0 0 .91-.661l.823-2.534c.286-.88 1.533-.88 1.82 0z" clip-path="url(&quot;#zdk8a&quot;)"/></g></g></svg>