<svg xmlns="http://www.w3.org/2000/svg" width="38" height="40" viewBox="0 0 38 40"><g><g><g><g><g><path fill="#f4144a" d="M26.267 4.56c.222 1.154-.577 2.266-1.712 2.57l-5.02 1.345-.097-.363-.01-.038c.631-.981 2.003-3.108 2.747-4.262.422-.656 1.14-1.101 1.92-1.08 1.12.032 1.964.75 2.172 1.828zM12.899 9.864l.098.363-5.127 1.374A2.226 2.226 0 0 1 5.07 9.486a2.213 2.213 0 0 1 .797-1.734c.698-.582 1.611-.7 2.442-.274l4.582 2.354.007.032zm17.898-4.407l-2.433.652c.185-.593.244-1.22.143-1.84-.323-1.978-1.8-3.433-3.734-3.736a4.423 4.423 0 0 0-4.456 1.997L17.99 6.137a3.377 3.377 0 0 0-4.828 1.298L9.34 5.47c-1.599-.82-3.46-.63-4.858.5-1.522 1.228-2.074 3.228-1.364 5.103.222.586.586 1.099 1.043 1.52l-2.426.65A2.257 2.257 0 0 0 .14 16.009l.876 3.27c.16.602.78.959 1.381.798l31.242-8.372c.602-.16.96-.78.798-1.381l-.876-3.27a2.257 2.257 0 0 0-2.764-1.596z"/></g></g></g><g><g><g><path fill="#f4144a" d="M4.071 21.963l4.283 15.984a2.256 2.256 0 0 0 2.764 1.596l10.172-2.726-4.867-18.163z"/></g></g></g><g><g><g><path fill="#f4144a" d="M20.782 17.486l4.867 18.163 10.171-2.725a2.256 2.256 0 0 0 1.596-2.764l-4.283-15.984z"/></g></g></g></g></g></svg>