<svg xmlns="http://www.w3.org/2000/svg" width="53" height="46" viewBox="0 0 53 46"><g><g><g><g><path fill="#9ea1b1" d="M34.963 34.965c-2.4 2.401-5.29 3.602-8.669 3.602-3.378 0-6.268-1.2-8.669-3.602-2.401-2.4-3.602-5.291-3.602-8.669s1.201-6.268 3.602-8.67c2.401-2.4 5.29-3.601 8.67-3.601 3.378 0 6.267 1.2 8.668 3.602 2.402 2.401 3.602 5.29 3.602 8.67 0 3.377-1.2 6.267-3.602 8.668zM50.536 9.067c-1.37-1.37-3.022-2.055-4.958-2.055h-6.136l-1.396-3.725c-.347-.894-.982-1.666-1.904-2.314C35.22.324 34.275 0 33.307 0H19.282c-.968 0-1.913.324-2.835.973-.922.648-1.556 1.42-1.903 2.314l-1.397 3.725H7.01c-1.936 0-3.588.685-4.958 2.055S0 12.089 0 14.024v24.543c0 1.936.685 3.588 2.054 4.957 1.37 1.37 3.022 2.055 4.958 2.055h38.566c1.936 0 3.588-.685 4.958-2.055 1.37-1.369 2.054-3.021 2.054-4.957V14.024c0-1.935-.684-3.588-2.053-4.957z"/></g><g><path fill="#9ea1b1" d="M26.294 18.407c-2.173 0-4.03.772-5.574 2.315-1.543 1.543-2.315 3.4-2.315 5.575 0 2.172.772 4.03 2.315 5.573 1.543 1.543 3.401 2.314 5.574 2.314s4.031-.77 5.575-2.314c1.543-1.543 2.314-3.4 2.314-5.573 0-2.174-.771-4.032-2.314-5.575-1.544-1.543-3.402-2.315-5.575-2.315z"/></g></g></g></g></svg>