<svg xmlns="http://www.w3.org/2000/svg" width="23" height="20" viewBox="0 0 23 20"><g><g><g><g><g><path fill="#fff" d="M13.096 17.143a4.764 4.764 0 0 1-4.762-4.762 4.764 4.764 0 0 1 4.762-4.762 4.764 4.764 0 0 1 4.762 4.762 4.764 4.764 0 0 1-4.762 4.762zm4.6-12.381l-1.743-1.905H9.286v2.857H6.43v2.857H3.572v9.524A1.91 1.91 0 0 0 5.477 20h15.238a1.91 1.91 0 0 0 1.904-1.905V6.667a1.91 1.91 0 0 0-1.904-1.905z"/></g><g><path fill="#fff" d="M3.572 7.619h1.905V4.762h2.857V2.857H5.477V0H3.572v2.857H.715v1.905h2.857z"/></g><g><path fill="#fff" d="M13.096 9.333a3.044 3.044 0 0 0-3.048 3.048 3.044 3.044 0 0 0 3.048 3.048 3.044 3.044 0 0 0 3.047-3.048 3.044 3.044 0 0 0-3.047-3.048z"/></g></g></g></g></g></svg>