<svg xmlns="http://www.w3.org/2000/svg" width="38" height="46" viewBox="0 0 38 46"><g><g><path fill="#545769" d="M23.668 6.91a.85.85 0 0 0-.421.112c-2.458 1.376-8.794 4.367-16.067 3.5.882-2.436 3.94-8.794 11.83-8.794 2.76 0 6.05.45 6.05 2.593 0 .399.272.746.66.84a3.237 3.237 0 0 1 2.448 3.455l-.391 3.92c-1.594-1.13-2.761-3.824-3.25-4.95l-.066-.154a.856.856 0 0 0-.517-.474.865.865 0 0 0-.276-.047zm5.71 7.88a1.728 1.728 0 0 1 0 2.993zm-21.6 2.357c0-.625.338-1.2.882-1.506v3.017a1.728 1.728 0 0 1-.882-1.507zm2.61-4.747a30.385 30.385 0 0 0 12.863-3.42c.785 1.738 2.217 4.509 4.4 5.46v8.722a4.305 4.305 0 0 1-1.062 2.876l-3.733 4.227c-.492.559-1.2.88-1.944.883h-3.783a2.592 2.592 0 0 1-1.944-.881L11.453 26a4.324 4.324 0 0 1-1.064-2.89zm3.36 24.375a2.584 2.584 0 0 0 .942-2.012v-2.648a4.33 4.33 0 0 0 2.438.756h3.786a4.326 4.326 0 0 0 2.418-.744v2.646a2.593 2.593 0 0 0 .929 2.01 7.682 7.682 0 0 1-10.512-.009zm23.409 9.073a.865.865 0 0 0 .865-.865v-.914a7.807 7.807 0 0 0-6.747-7.69l-5.462-.725a.868.868 0 0 1-.752-.872v-4.406l2.826-3.2a6.037 6.037 0 0 0 1.494-4.026v-3.52a3.458 3.458 0 0 0 .09-6.67l.416-4.172a4.975 4.975 0 0 0-3.15-5.116C26.437 1.869 24.745 0 19.012 0 8.092 0 5.239 10.914 5.208 11.024a.865.865 0 0 0 .7 1.062c.91.15 1.83.249 2.752.292V13.8a3.457 3.457 0 0 0 0 6.7v2.6a6.05 6.05 0 0 0 1.49 4.033l2.81 3.213v4.426a.865.865 0 0 1-.752.864l-5.461.726A7.799 7.799 0 0 0 0 44.07v.918a.864.864 0 1 0 1.729 0v-.913a6.066 6.066 0 0 1 5.247-6l4.989-.664c.253.287.524.558.81.812 3.885 3.444 9.826 3.087 13.27-.797l5 .665a6.071 6.071 0 0 1 5.248 5.979v.913c0 .478.387.865.864.865"/></g></g></svg>