<svg xmlns="http://www.w3.org/2000/svg" width="20" height="13" viewBox="0 0 20 13"><g><g><path fill="#545769" d="M9.767 9.296c.887 0 1.643-.526 1.928-1.34l-2.271 1.31c.115.02.23.03.343.03zM5.83 11.343zm0 0a8.11 8.11 0 0 0 3.936 1.02 8.016 8.016 0 0 0 4.594-1.433 7.931 7.931 0 0 0 2.904-3.679 7.853 7.853 0 0 0-1.054-1.9l-3.038 1.753c0 .048.003.096.003.147 0 1.91-1.5 3.41-3.41 3.41-.66 0-1.297-.183-1.842-.526zm.525-4.092c0-1.913 1.5-3.41 3.41-3.41.788 0 1.522.26 2.108.715l-1.353.781a2.145 2.145 0 0 0-.754-.134c-1.058 0-1.882.729-2.024 1.738l-1.355.782a3.598 3.598 0 0 1-.032-.472zm-5.632 5.06a1.001 1.001 0 0 0 1.368.368l17.053-9.847a1 1 0 0 0 .366-1.365l-.07-.122a1.002 1.002 0 0 0-1.369-.368L13.997 3.33a8.014 8.014 0 0 0-4.23-1.193c-1.655 0-3.24.496-4.593 1.432a7.955 7.955 0 0 0-2.906 3.682c.3.773.718 1.493 1.24 2.135l-2.49 1.438a1 1 0 0 0-.366 1.365l.072.122z"/><path fill="none" stroke="#000" stroke-miterlimit="50" d="M9.767 9.296c.887 0 1.643-.526 1.928-1.34l-2.271 1.31c.115.02.23.03.343.03zM5.83 11.343h0s0 0 0 0zm0 0a8.11 8.11 0 0 0 3.936 1.02 8.016 8.016 0 0 0 4.594-1.433 7.931 7.931 0 0 0 2.904-3.679 7.853 7.853 0 0 0-1.054-1.9l-3.038 1.753c0 .048.003.096.003.147 0 1.91-1.5 3.41-3.41 3.41-.66 0-1.297-.183-1.842-.526zm.525-4.092c0-1.913 1.5-3.41 3.41-3.41.788 0 1.522.26 2.108.715l-1.353.781a2.145 2.145 0 0 0-.754-.134c-1.058 0-1.882.729-2.024 1.738l-1.355.782a3.598 3.598 0 0 1-.032-.472zm-5.632 5.06a1.001 1.001 0 0 0 1.368.368l17.053-9.847a1 1 0 0 0 .366-1.365l-.07-.122a1.002 1.002 0 0 0-1.369-.368L13.997 3.33a8.014 8.014 0 0 0-4.23-1.193c-1.655 0-3.24.496-4.593 1.432a7.955 7.955 0 0 0-2.906 3.682c.3.773.718 1.493 1.24 2.135l-2.49 1.438a1 1 0 0 0-.366 1.365l.072.122z"/></g></g></svg>