<svg xmlns="http://www.w3.org/2000/svg" width="18" height="19" viewBox="0 0 18 19"><g><g><g><path fill="#545769" d="M16.409 13.407a3.375 3.375 0 0 1-3.372 3.372H4.969a3.375 3.375 0 0 1-3.371-3.372V5.34a3.375 3.375 0 0 1 3.37-3.371h8.069a3.375 3.375 0 0 1 3.371 3.371v8.068zM13.037.37H4.969A4.975 4.975 0 0 0 0 5.34v8.067c0 2.74 2.23 4.97 4.969 4.97h8.068c2.74 0 4.969-2.23 4.969-4.97V5.34A4.975 4.975 0 0 0 13.036.37z"/></g><g><path fill="#545769" d="M9.003 12.415a3.045 3.045 0 0 1-3.042-3.042 3.046 3.046 0 0 1 3.042-3.042 3.046 3.046 0 0 1 3.042 3.042 3.045 3.045 0 0 1-3.042 3.042zm0-7.681a4.645 4.645 0 0 0-4.64 4.64 4.645 4.645 0 0 0 4.64 4.639 4.645 4.645 0 0 0 4.64-4.64 4.645 4.645 0 0 0-4.64-4.64z"/></g><g><path fill="#545769" d="M13.837 3.38a1.176 1.176 0 0 0-1.171 1.17c0 .309.125.611.344.83.217.217.52.342.827.342.31 0 .61-.125.829-.343a1.177 1.177 0 0 0 0-1.657 1.177 1.177 0 0 0-.829-.343z"/></g></g></g></svg>