<svg xmlns="http://www.w3.org/2000/svg" width="17" height="15" viewBox="0 0 17 15"><g><g><g><path fill="#d0d1d6" d="M6.27 14.89a.692.692 0 0 1-.208-.034l-4.89-1.562a.684.684 0 0 1-.476-.652V1.034a.683.683 0 0 1 .893-.651l4.89 1.562a.684.684 0 1 1-.417 1.304L2.065 1.971v10.17l4.414 1.411a.684.684 0 0 1-.208 1.337z"/></g><g><path fill="#d0d1d6" d="M11.845 1.971l3.521 1.126v10.17l-3.52-1.126zm4.206 12.918a.686.686 0 0 0 .685-.685V2.597a.686.686 0 0 0-.477-.652L11.37.383a.688.688 0 0 0-.893.651v11.608c0 .298.193.561.476.652l4.89 1.562a.678.678 0 0 0 .21.033z"/></g><g><g><path fill="#d0d1d6" d="M6.27 14.204l4.89-1.562V1.034L6.27 2.597z"/></g><g><path fill="#d0d1d6" d="M10.476 1.971v10.17l-3.521 1.126V3.097zM6.271 14.89c.07 0 .14-.01.208-.033l4.89-1.562a.684.684 0 0 0 .476-.652V1.034a.683.683 0 0 0-.893-.651l-4.89 1.562a.686.686 0 0 0-.476.652v11.607a.684.684 0 0 0 .685.685z"/></g></g></g></g></svg>