<svg xmlns="http://www.w3.org/2000/svg" width="11" height="15" viewBox="0 0 11 15"><g><g><path fill="#d7d8dc" d="M5.232 3.367A2.635 2.635 0 0 1 7.864 6a2.635 2.635 0 0 1-2.632 2.632A2.635 2.635 0 0 1 2.6 5.999a2.635 2.635 0 0 1 2.632-2.632zm0 10.87c.09 0 .181-.014.268-.043a.73.73 0 0 0 .234-.127c.013-.01.311-.258.74-.672a18.864 18.864 0 0 0 1.625-1.791c.686-.867 1.233-1.734 1.625-2.577.114-.244.215-.49.302-.728.09-.246.169-.497.234-.75.065-.254.115-.51.15-.77.035-.258.052-.519.053-.78a5.271 5.271 0 0 0-.411-2.036 5.227 5.227 0 0 0-1.895-2.301 5.231 5.231 0 0 0-1.87-.787 5.268 5.268 0 0 0-3.091.304A5.23 5.23 0 0 0 .895 3.075 5.226 5.226 0 0 0 0 5.999c0 .261.018.522.053.78.035.26.086.516.15.77.063.245.142.498.234.75.087.239.189.484.302.728.392.843.94 1.71 1.626 2.577a17.982 17.982 0 0 0 1.625 1.791c.428.414.726.661.738.671.07.057.15.1.235.128a.85.85 0 0 0 .268.043z"/></g></g></svg>