<svg xmlns="http://www.w3.org/2000/svg" width="27" height="21" viewBox="0 0 27 21"><g><g><g><g><g><path fill="#231f20" d="M4.616 20.655v-1.22c0-.371-.156-.578-.48-.578-.317 0-.537.202-.537.583v1.215h-.482v-1.22c0-.371-.16-.578-.476-.578-.326 0-.537.202-.537.583v1.215h-.481v-2.192H2.1v.27a.725.725 0 0 1 .641-.325c.335 0 .573.147.725.39.202-.307.49-.395.77-.39.532.005.862.353.862.871v1.376zm7.607-1.756h-.78v.99c0 .22.078.367.316.367.124 0 .28-.042.422-.124l.138.408c-.152.106-.39.17-.597.17-.563 0-.76-.303-.76-.812v-1h-.445v-.435h.445v-.665h.481v.665h.78zm4.066-.49c.096 0 .234.018.34.059l-.148.45a.772.772 0 0 0-.298-.056c-.311 0-.467.202-.467.564v1.229h-.477v-2.192h.473v.266a.645.645 0 0 1 .577-.32m-6.354.614a1.414 1.414 0 0 0-.684-.188c-.26 0-.417.096-.417.256 0 .147.166.188.372.216l.224.032c.477.069.766.27.766.655 0 .418-.367.716-1 .716-.357 0-.687-.092-.948-.285l.224-.37c.16.123.399.229.729.229.325 0 .5-.097.5-.266 0-.124-.124-.193-.385-.23l-.225-.032c-.49-.068-.756-.289-.756-.646 0-.436.357-.702.912-.702.349 0 .665.078.894.23zm12.979-.615c.096 0 .234.019.34.06l-.148.45a.772.772 0 0 0-.298-.056c-.311 0-.467.202-.467.564v1.229h-.477v-2.192h.472v.266a.647.647 0 0 1 .578-.32m-6.143 1.15c0-.665.462-1.15 1.169-1.15.33 0 .55.073.788.26l-.229.386a.963.963 0 0 0-.573-.198c-.38.005-.66.28-.66.702 0 .422.28.697.66.702a.963.963 0 0 0 .573-.198l.229.385c-.238.188-.458.262-.788.262-.707 0-1.17-.486-1.17-1.151m4.466 1.096h-.477v-.266c-.151.197-.38.32-.692.32-.614 0-1.096-.48-1.096-1.15 0-.67.482-1.15 1.096-1.15.312 0 .54.123.692.32v-.266h.477zm-1.775-1.096c0 .385.253.702.665.702.394 0 .66-.303.66-.702 0-.399-.266-.702-.66-.702-.412 0-.665.317-.665.702m-5.753-1.15c.614 0 1.036.467 1.04 1.15 0 .064-.004.124-.009.183h-1.627c.069.395.348.537.655.537.22 0 .454-.083.638-.23l.233.354c-.266.224-.568.307-.898.307-.656 0-1.123-.454-1.123-1.151 0-.683.449-1.15 1.091-1.15m-.01.426c-.339 0-.53.215-.582.531h1.137c-.05-.339-.247-.531-.554-.531m11.961 1.82h-.477v-.266c-.15.197-.38.32-.692.32-.614 0-1.096-.48-1.096-1.15 0-.67.482-1.15 1.096-1.15.312 0 .541.123.692.32v-1.146h.477zm-1.774-1.096c0 .385.252.702.664.702.395 0 .66-.303.66-.702 0-.399-.265-.702-.66-.702-.412 0-.664.317-.664.702M7.784 20.655h-.476v-.266c-.151.197-.38.32-.692.32-.615 0-1.097-.48-1.097-1.15 0-.67.482-1.15 1.097-1.15.311 0 .54.123.692.32v-.266h.476zM6.01 19.559c0 .385.252.702.665.702.394 0 .66-.303.66-.702 0-.399-.266-.702-.66-.702-.413 0-.665.317-.665.702m20.445.778a.218.218 0 0 1 .157.064.214.214 0 0 1 .047.238.225.225 0 0 1-.118.116.221.221 0 0 1-.31-.2c0-.03.007-.058.018-.085a.213.213 0 0 1 .118-.116.221.221 0 0 1 .088-.017m0 .388a.172.172 0 0 0 .155-.104.173.173 0 0 0-.036-.186.168.168 0 0 0-.12-.049.171.171 0 0 0-.121.049.165.165 0 0 0-.035.054.164.164 0 0 0-.013.066c0 .024.004.046.013.066a.16.16 0 0 0 .09.09c.02.01.043.014.067.014m.013-.272c.026 0 .046.006.06.017a.057.057 0 0 1 .02.048c0 .016-.005.03-.016.041a.082.082 0 0 1-.048.02l.066.076H26.5l-.062-.075h-.02v.075h-.042v-.202zm-.05.038v.054h.05c.01 0 .02-.003.027-.007a.024.024 0 0 0 .01-.02.023.023 0 0 0-.01-.02.048.048 0 0 0-.028-.007z"/></g></g><g><g><path fill="#f79410" d="M26.182 13.367V13.1h.107v-.054h-.273v.054h.107v.266zm.53 0v-.32h-.084l-.097.22-.096-.22h-.084v.32h.06v-.241l.09.208h.061l.09-.209v.242z"/></g></g><g><path fill="#ff5f00" d="M17.224 14.744h-7.221V1.766h7.221z"/></g><g><g><path fill="#eb001b" d="M10.465 8.254a8.24 8.24 0 0 1 3.152-6.49A8.253 8.253 0 0 0 .264 8.255a8.253 8.253 0 0 0 13.353 6.489 8.24 8.24 0 0 1-3.152-6.49"/></g></g><g><g><path fill="#f79e1b" d="M26.963 8.254a8.253 8.253 0 0 1-13.354 6.489 8.239 8.239 0 0 0 3.153-6.49 8.239 8.239 0 0 0-3.153-6.488 8.253 8.253 0 0 1 13.354 6.49"/></g></g></g></g></g></svg>