<svg xmlns="http://www.w3.org/2000/svg" width="46" height="14" viewBox="0 0 46 14"><defs><linearGradient id="t8nma" x1="32.11" x2="45.57" y1="2.82" y2="2.82" gradientUnits="userSpaceOnUse"><stop offset="0" stop-color="#00b4e6"/><stop offset="1" stop-color="#088ccb"/></linearGradient></defs><g><g><g><path fill="url(#t8nma)" d="M40.864 0h-8.742c.47 2.914 3.29 5.64 6.392 5.64h6.955c.094-.282.094-.658.094-.94 0-2.632-2.068-4.7-4.7-4.7z"/></g><g><path fill="#4db45f" d="M32.874 6.11v7.049h4.23v-3.76h3.76c2.067 0 3.853-1.41 4.417-3.29z"/></g><g><path fill="#4db45f" d="M17.836 0v13.159h3.76s.94 0 1.41-.94l3.289-6.58h.47v7.52h4.23V0h-3.76s-.94.094-1.41.94l-3.29 6.58h-.47V0z"/></g><g><path fill="#4db45f" d="M-.023 13.159V0h4.23s1.222 0 1.88 1.88c1.691 4.981 1.88 5.64 1.88 5.64s.375-1.223 1.88-5.64C10.503 0 11.726 0 11.726 0h4.229v13.159h-4.23v-7.05h-.47l-2.35 7.05h-1.88l-2.35-7.05h-.47v7.05z"/></g></g></g></svg>