<svg xmlns="http://www.w3.org/2000/svg" width="15" height="14" viewBox="0 0 15 14"><g><g><g><g><g><path fill="#fff" d="M14.911 6.673l-2.262-2.261V1.799a.855.855 0 0 0-1.71 0v.902L9.255 1.017c-.833-.832-2.28-.83-3.111.001L.489 6.673a.856.856 0 0 0 1.21 1.21l5.654-5.655a.505.505 0 0 1 .692 0l5.656 5.655a.854.854 0 0 0 1.21 0 .856.856 0 0 0 0-1.21z"/></g><g><path fill="#fff" d="M7.997 3.473a.42.42 0 0 0-.594 0L2.429 8.445a.421.421 0 0 0-.123.298v3.627c0 .851.69 1.541 1.54 1.541H6.31v-3.814h2.78v3.814h2.464c.85 0 1.54-.69 1.54-1.541V8.743a.42.42 0 0 0-.122-.298z"/></g></g></g></g></g></svg>