<svg xmlns="http://www.w3.org/2000/svg" width="14" height="14" viewBox="0 0 14 14"><g><g><path fill="#9ea1b1" d="M2.5 2.502a1.196 1.196 0 0 1 1.69 1.69 1.196 1.196 0 0 1-1.69-1.69zM1.374 1.375a4.387 4.387 0 0 0 0 6.197C2.54 8.74 4.23 9.114 5.79 8.609l1.022 1.008a.398.398 0 0 0 .281.116h.728v.742a.4.4 0 0 0 .445.396l.605-.07.079.838c.018.19.168.341.359.36l.839.078-.07.605a.398.398 0 0 0 .114.328l.563.564a.398.398 0 0 0 .281.116h2.254c.22 0 .398-.178.398-.398v-2.254a.398.398 0 0 0-.117-.281L8.637 5.822A4.38 4.38 0 0 0 7.57 1.375a4.386 4.386 0 0 0-6.196 0z"/></g></g></svg>