<svg xmlns="http://www.w3.org/2000/svg" width="18" height="18" viewBox="0 0 18 18"><g><g><path fill="#d0d1d6" d="M17.19 14.343a.831.831 0 0 1-.255.728l-2.422 2.403c-.109.122-.251.225-.427.31-.176.085-.35.14-.52.163a1.8 1.8 0 0 0-.109.01c-.06.006-.139.009-.236.009-.23 0-.604-.04-1.12-.119-.516-.078-1.147-.273-1.893-.582-.747-.31-1.593-.774-2.54-1.393-.946-.619-1.954-1.468-3.022-2.548-.85-.838-1.553-1.639-2.111-2.404A17.122 17.122 0 0 1 1.187 8.8C.847 8.15.593 7.562.423 7.034a9.369 9.369 0 0 1-.346-1.366 4.509 4.509 0 0 1-.073-.9c.012-.22.018-.34.018-.365a1.77 1.77 0 0 1 .164-.519c.085-.176.188-.318.31-.428l2.42-2.42A.802.802 0 0 1 3.5.78a.68.68 0 0 1 .42.137c.12.09.224.203.309.337l1.947 3.695c.11.194.14.407.091.637-.048.231-.151.425-.309.583l-.892.892a.304.304 0 0 0-.064.118.45.45 0 0 0-.027.137c.048.255.158.546.328.874.145.291.37.646.673 1.065.304.418.734.9 1.293 1.447.546.558 1.031.992 1.456 1.302.425.309.78.537 1.065.682.285.146.504.234.656.264l.227.046c.024 0 .064-.01.118-.028a.304.304 0 0 0 .119-.063l1.037-1.056c.219-.194.474-.291.765-.291.206 0 .37.036.492.109h.018l3.513 2.075c.255.158.407.358.455.601z"/></g></g></svg>