<svg xmlns="http://www.w3.org/2000/svg" width="8" height="7" viewBox="0 0 8 7"><g><g><path fill="#fafafa" d="M5.231 5.525a1.685 1.685 0 0 1-1.235.514c-.482 0-.894-.171-1.236-.514a1.685 1.685 0 0 1-.514-1.236c0-.481.171-.893.514-1.235a1.685 1.685 0 0 1 1.236-.514c.481 0 .893.171 1.235.514.343.342.514.754.514 1.235 0 .482-.171.894-.514 1.236zm2.22-3.692a.963.963 0 0 0-.706-.293H5.87l-.2-.53A.725.725 0 0 0 5.4.68a.695.695 0 0 0-.405-.14H2.996a.695.695 0 0 0-.404.14.725.725 0 0 0-.272.33l-.199.53h-.874a.963.963 0 0 0-.707.293.963.963 0 0 0-.293.707v3.499c0 .276.098.511.293.706.195.196.43.293.707.293h5.498a.963.963 0 0 0 .706-.293.963.963 0 0 0 .293-.706V2.54a.963.963 0 0 0-.293-.707z"/></g></g></svg>