<svg xmlns="http://www.w3.org/2000/svg" width="19" height="18" viewBox="0 0 19 18"><g><g><path fill="#f6f6f6" d="M5.666 3.96l5.31-1.424 2.316-.618-.568-.976A.95.95 0 0 0 11.658.5a.961.961 0 0 0-.234.1l-1.42.83zm-2.984.798l.891-.237L9.62.992 9.085.387a.949.949 0 0 0-1.34-.084zm10.116 3.794a.482.482 0 0 1 .585.334l.08.307a.476.476 0 0 1-.338.582l-.304.08a.472.472 0 0 1-.582-.334l-.083-.304a.47.47 0 0 1 .08-.408.487.487 0 0 1 .257-.177l.077-.02.228-.06zM10.85 10.79a.954.954 0 0 0 1.166.675l5.454-1.464.023-.007a.957.957 0 0 0 .284-.127c.11-.073.2-.17.27-.277a.965.965 0 0 0 .118-.759l-.548-2.045a.95.95 0 0 0-1.163-.672l-.027.007-.017.003-.284.077-1.03.274-4.12 1.106a.95.95 0 0 0-.671 1.167l.12.454.077.288.076.284.272 1.016zm-7.938 6.55a.944.944 0 0 0 1.163.672l13.578-3.636a.951.951 0 0 0 .672-1.167l-.684-2.563-5.452 1.46a1.617 1.617 0 0 1-1.982-1.142l-.224-.84-.077-.287-.076-.284-.167-.631a1.594 1.594 0 0 1 .15-1.207 1.602 1.602 0 0 1 .99-.772l4.688-1.256.284-.074.288-.077.194-.053-.672-2.507a.952.952 0 0 0-1.163-.675l-.211.057-.284.077-.283.076-2.176.582-7.985 2.139-1.05.28-.878.238-.163.043-.55.147a.94.94 0 0 0-.624.538.924.924 0 0 0-.08.378.92.92 0 0 0 .03.25l.03.111.28 1.046 2.434 9.077z"/></g></g></svg>