<svg xmlns="http://www.w3.org/2000/svg" width="10" height="10" viewBox="0 0 10 10"><g><g><path fill="#d7d8dc" d="M6.009 1.252l.613 1.887c.095.294.369.493.678.493h1.984c.69 0 .977.883.419 1.29L8.098 6.086a.713.713 0 0 0-.26.797l.614 1.887c.213.657-.538 1.203-1.097.797L5.75 8.402a.713.713 0 0 0-.838 0L3.307 9.568c-.559.406-1.31-.14-1.097-.797l.613-1.887a.712.712 0 0 0-.259-.797L.96 4.921c-.558-.406-.271-1.29.42-1.29h1.983c.31 0 .583-.198.678-.492l.613-1.887c.213-.656 1.142-.656 1.356 0z"/></g></g></svg>