<svg xmlns="http://www.w3.org/2000/svg" width="14" height="14" viewBox="0 0 14 14"><g><g><path fill="#ffdfe7" d="M7.813 1.47l.883 2.716c.137.423.531.71.976.71h2.857c.994 0 1.408 1.272.603 1.856l-2.311 1.68c-.36.26-.51.724-.373 1.147l.883 2.717c.307.946-.775 1.732-1.58 1.147L7.44 11.764a1.026 1.026 0 0 0-1.206 0l-2.311 1.68c-.805.584-1.887-.202-1.58-1.148l.883-2.717a1.026 1.026 0 0 0-.373-1.148L.542 6.752c-.804-.584-.39-1.857.603-1.857h2.857c.445 0 .839-.286.976-.709l.883-2.717c.307-.945 1.644-.945 1.952 0z"/></g></g></svg>