<svg xmlns="http://www.w3.org/2000/svg" width="20" height="17" viewBox="0 0 20 17"><g><g><path fill="#8c8f9e" d="M.724 12.312l-.07-.122a1 1 0 0 1 .366-1.366l1.827-1.055-.372-.372A4.757 4.757 0 0 1 .841 5.812a4.765 4.765 0 0 1 4.76-4.76c1.662 0 3.178.85 4.054 2.275a4.73 4.73 0 0 1 4.054-2.275 4.75 4.75 0 0 1 2.738.864l1.626-.938a1 1 0 0 1 1.366.366l.071.122a1 1 0 0 1-.366 1.366l-1.245.72.033.062-13.466 7.774h-.001l-.05-.051-2.324 1.341a.998.998 0 0 1-1.367-.366zm8.496 3.831l-3.918-3.918 13.035-7.526a4.758 4.758 0 0 1-1.502 4.698l-6.746 6.746a.61.61 0 0 1-.869 0z"/></g></g></svg>