<svg xmlns="http://www.w3.org/2000/svg" width="19" height="20" viewBox="0 0 19 20"><g><g><path fill="#f4144a" d="M12.025 13.242a1.946 1.946 0 0 1-1.947-1.948c0-1.076.87-1.947 1.947-1.947s1.948.87 1.948 1.947-.871 1.948-1.948 1.948zm-4.757-.202a.476.476 0 0 1-.732-.606l5.11-6.154a.476.476 0 0 1 .732.605zM4.945 8.017c0-1.076.87-1.947 1.947-1.947 1.076 0 1.947.87 1.947 1.947s-.87 1.947-1.947 1.947a1.948 1.948 0 0 1-1.947-1.947zm13.738 2.707l-.293-.4a1.26 1.26 0 0 1-.012-1.468l.285-.403a1.26 1.26 0 0 0-.436-1.837l-.435-.233a1.254 1.254 0 0 1-.645-1.318l.083-.487a1.257 1.257 0 0 0-1.187-1.465l-.495-.02a1.262 1.262 0 0 1-1.156-.906l-.138-.475A1.255 1.255 0 0 0 12.548.91l-.455.194A1.254 1.254 0 0 1 10.66.786L10.33.418a1.255 1.255 0 0 0-1.884.016l-.324.372c-.356.408-.93.542-1.429.336l-.46-.19a1.26 1.26 0 0 0-1.693.831l-.13.48a1.25 1.25 0 0 1-1.14.922l-.495.027a1.257 1.257 0 0 0-1.164 1.484l.091.487a1.255 1.255 0 0 1-.625 1.326l-.432.242a1.256 1.256 0 0 0-.403 1.84l.293.4a1.26 1.26 0 0 1 .011 1.468l-.285.404a1.26 1.26 0 0 0 .436 1.836l.435.234c.475.253.736.784.645 1.318l-.083.487a1.257 1.257 0 0 0 1.188 1.464l.494.02a1.262 1.262 0 0 1 1.156.906l.139.475a1.255 1.255 0 0 0 1.705.804l.456-.194a1.254 1.254 0 0 1 1.432.316l.329.368c.506.562 1.39.558 1.884-.015l.324-.372c.357-.408.93-.543 1.43-.337l.458.19a1.26 1.26 0 0 0 1.694-.831l.13-.479a1.25 1.25 0 0 1 1.14-.922l.495-.028a1.257 1.257 0 0 0 1.164-1.484l-.091-.487a1.255 1.255 0 0 1 .625-1.326l.432-.241c.66-.364.85-1.227.403-1.84z"/></g></g></svg>