<svg xmlns="http://www.w3.org/2000/svg" width="16" height="11" viewBox="0 0 16 11"><g><g><g><path fill="#545769" d="M7.767 3.205c-1.159 0-2.045.886-2.045 2.045 0 1.16.886 2.046 2.045 2.046 1.16 0 2.046-.887 2.046-2.046 0-1.159-.887-2.045-2.046-2.045zm0 5.454A3.376 3.376 0 0 1 4.358 5.25c0-1.909 1.5-3.409 3.41-3.409 1.908 0 3.408 1.5 3.408 3.41 0 1.908-1.5 3.408-3.409 3.408zm0-8.522a8.033 8.033 0 0 0-7.5 5.113 8.033 8.033 0 0 0 7.5 5.114 8.033 8.033 0 0 0 7.5-5.114 8.033 8.033 0 0 0-7.5-5.113z"/></g></g></g></svg>