<svg xmlns="http://www.w3.org/2000/svg" width="19" height="12" viewBox="0 0 19 12"><g><g><path fill="#9ea1b1" d="M11.436 4.87a2.16 2.16 0 1 0 .002-4.32 2.16 2.16 0 0 0-.002 4.32zm4.05 1.617a1.35 1.35 0 1 0 0-2.7 1.35 1.35 0 0 0 0 2.7zM2.771 8.834a.76.76 0 0 1 .762.762.761.761 0 1 1-1.524 0c0-.42.342-.762.762-.762zm1.23 2.13c.009 0 .012.004.016.004a.408.408 0 0 0 .4-.375l.34-4.396a.376.376 0 0 0-.358-.405l-2.766-.138a.495.495 0 0 0-.484.357l-.502 4.563c-.051.208.079.383.29.39zm2.98-.691c.56.126 5.072.955 6.358.955.111 0 .197-.007.257-.018 1.04-.246 3.989-1.99 4.55-2.532.878-.845.198-1.73-.539-1.328a12.089 12.089 0 0 1-3.777 1.29c-1.231.194-3.544-.271-3.544-.821 0-.1.446.007 1.049.115.68.123 1.558.242 2.208.07.941-.252.808-1.134.294-1.249-.509-.115-3.491-1.208-4.767-1.25-.598-.014-2.083.213-2.8.328-.246.04-.402.037-.417.271L5.568 10.6c-.004.026.03.357.305.123.302-.257.722-.54 1.108-.45z"/></g></g></svg>