<svg xmlns="http://www.w3.org/2000/svg" width="15" height="13" viewBox="0 0 15 13"><g><g><path fill="#fff" d="M11.227.335l-.162.043-.22.06-.219.058-1.675.45-6.158 1.65-.808.215-.68.183-.126.033-.422.113a.732.732 0 0 0-.52.899l.023.085.216.807 1.876 7a.734.734 0 0 0 .898.518l10.47-2.805a.734.734 0 0 0 .518-.898l-.53-1.977-4.202 1.127a1.247 1.247 0 0 1-1.527-.882l-.174-.649-.059-.22-.058-.219-.131-.487a1.241 1.241 0 0 1 .117-.93 1.234 1.234 0 0 1 .763-.595l3.615-.969.22-.058.22-.06.15-.04-.518-1.933a.731.731 0 0 0-.897-.519z"/></g><g><path fill="#fff" d="M10.488 5.647a.367.367 0 0 1-.26.449l-.234.063a.367.367 0 0 1-.45-.26l-.062-.235a.37.37 0 0 1 .26-.449l.058-.016.176-.047a.367.367 0 0 1 .45.26l.062.235zM13.32 3.33a.733.733 0 0 0-.527-.057l-.018.005-.014.004-.22.058-.792.213-3.179.851a.734.734 0 0 0-.518.898l.094.353.06.22.058.22.21.784c.105.39.508.623.898.518l4.205-1.126.018-.005a.748.748 0 0 0 .428-.314.73.73 0 0 0 .09-.584l-.422-1.577a.73.73 0 0 0-.37-.46z"/></g></g></svg>