<svg xmlns="http://www.w3.org/2000/svg" width="14" height="11" viewBox="0 0 14 11"><g><g><path fill="#9ea1b1" d="M1.13 2.573v-1.56c0-.06.022-.112.066-.156A.215.215 0 0 1 1.353.79h11.144c.06 0 .112.022.156.066a.214.214 0 0 1 .066.156v1.56zm11.59 6.91c0 .06-.023.112-.067.157a.215.215 0 0 1-.156.066H1.353a.214.214 0 0 1-.157-.067.215.215 0 0 1-.066-.156V5.248h11.59v4.235zm.564-9.257a1.073 1.073 0 0 0-.787-.327H1.353C1.046-.1.784.01.566.226c-.219.219-.328.48-.328.787v8.47c0 .306.11.569.328.787.218.218.48.327.787.327h11.144c.306 0 .568-.109.787-.327.218-.218.327-.48.327-.787v-8.47c0-.306-.11-.568-.327-.787z"/></g></g></svg>