<svg xmlns="http://www.w3.org/2000/svg" width="57" height="49" viewBox="0 0 57 49"><g><g><g><g><g><path fill="#9ea1b1" d="M56.173 25.335c-.611-1.087-2.038-1.494-3.192-.815l-7.744 4.483-1.97 1.155V40.89l1.834 1.086c.068 0 .068.068.136.068l7.608 4.415c.34.272.815.408 1.29.408a2.29 2.29 0 0 0 2.31-2.31v-9.101l.068-8.966c0-.408-.068-.815-.34-1.155z"/></g><g><path fill="#9ea1b1" d="M10.936 21.871c6.045 0 10.936-4.89 10.936-10.935C21.872 4.89 16.982 0 10.936 0A10.928 10.928 0 0 0 .001 10.936C-.067 16.98 4.89 21.87 10.936 21.87z"/></g><g><path fill="#9ea1b1" d="M38.649 22.483c-1.766.882-3.736 1.426-5.842 1.426-2.58 0-5.026-.747-7.064-2.106H18c-2.037 1.359-4.483 2.106-7.064 2.106-2.105 0-4.075-.476-5.841-1.426-1.562.882-2.65 2.648-2.65 4.55v16.574c0 3.056 2.514 5.501 5.503 5.501h27.916c3.057 0 5.502-2.513 5.502-5.501V27.033c-.068-1.902-1.155-3.668-2.717-4.55z"/></g><g><path fill="#9ea1b1" d="M32.807 21.871c6.046 0 10.936-4.89 10.936-10.935C43.743 4.89 38.853 0 32.807 0a10.928 10.928 0 0 0-10.935 10.936c0 6.045 4.89 10.935 10.935 10.935z"/></g></g></g></g></g></svg>