<svg xmlns="http://www.w3.org/2000/svg" width="17" height="19" viewBox="0 0 17 19"><g><g><path fill="#f4144a" d="M9.822 1.538a1.153 1.153 0 0 1-2.304 0 1.153 1.153 0 0 1 2.304 0zm7.177 8.076c0 1.38-.658 2.614-1.651 3.427.019.083.007.169.007.257v.341c0 .631-.468 1.154-1.1 1.154H3.039A1.148 1.148 0 0 1 1.9 13.639v-.34c0-.101.01-.198.035-.29A4.421 4.421 0 0 1 .34 9.614a4.431 4.431 0 0 1 4.427-4.426c.283 0 .56.028.827.08-.452.986-.717 2.21-.717 3.55 0 1.246.23 2.391.627 3.342h1.213c-.457-.877-.743-2.064-.743-3.341 0-2.646 1.223-4.884 2.672-4.884 1.448 0 2.671 2.237 2.671 4.883 0 1.277-.285 2.464-.743 3.342h1.214c.396-.95.626-2.096.626-3.342 0-1.336-.263-2.559-.713-3.544a4.432 4.432 0 0 1 5.297 4.34zm-1.863 8.213a.548.548 0 0 1-.549.549H2.667a.548.548 0 0 1-.548-.549v-1.17c0-.303.246-.548.549-.548h11.92c.302 0 .548.245.548.548z"/></g></g></svg>