<svg xmlns="http://www.w3.org/2000/svg" width="46" height="15" viewBox="0 0 46 15"><g><g><g><path fill="#00579f" d="M19.787 14.478h-3.676l2.3-14.22h3.676z"/></g><g><path fill="#00579f" d="M33.116.605A9.062 9.062 0 0 0 29.818 0c-3.63 0-6.188 1.936-6.203 4.704-.03 2.043 1.83 3.177 3.222 3.858 1.423.696 1.906 1.15 1.906 1.77-.014.953-1.15 1.392-2.208 1.392-1.468 0-2.254-.226-3.45-.756l-.484-.227-.514 3.192c.862.393 2.45.741 4.1.756 3.858 0 6.37-1.906 6.4-4.856.014-1.618-.968-2.859-3.087-3.872-1.286-.651-2.073-1.09-2.073-1.755.015-.606.666-1.225 2.118-1.225a6.247 6.247 0 0 1 2.738.544l.333.151.5-3.07z"/></g><g><path fill="#00579f" d="M45.508 14.477h-3.405s-.333-1.633-.439-2.133h-4.72l-.772 2.133h-3.858l5.462-13.04c.378-.922 1.044-1.18 1.921-1.18h2.844zm-4.45-5.037c-.15-.711-.847-4.115-.847-4.115L39.954 4.1c-.181.53-.499 1.392-.483 1.361 0 0-1.165 3.162-1.468 3.979h3.056z"/></g><g><path fill="#00579f" d="M13.04.258L9.439 9.954l-.394-1.966c-.665-2.27-2.753-4.735-5.083-5.96L7.26 14.461h3.888L16.928.258H13.04z"/></g><g><path fill="#faa61a" d="M6.095.258H.18L.119.545c4.615 1.18 7.67 4.024 8.926 7.443L7.76 1.453C7.548.545 6.897.288 6.095.258z"/></g></g></g></svg>