<svg xmlns="http://www.w3.org/2000/svg" width="18" height="19" viewBox="0 0 18 19"><g><g><path fill="#545769" d="M10.44 11.203a.256.256 0 0 0-.077.011c-.42.133-.411 1.04-.411 1.05 0 .001.003.195-.093.299-.105.113-.309.136-.31.136h-.682l-.058.001c-.256 0-1.59-.062-2.771-1.29-1.427-1.487-2.706-4.458-2.72-4.488 0-.002-.071-.197.007-.29.089-.105.332-.114.335-.114l1.629-.01a.706.706 0 0 1 .263.107c.09.065.14.188.141.19.003.006.268.674.612 1.269.543.937.877 1.337 1.12 1.337.038 0 .074-.01.11-.03.333-.18.237-1.647.236-1.662 0-.005.004-.541-.17-.777-.138-.187-.4-.24-.506-.254-.016-.002-.025-.01-.027-.024-.01-.063.126-.221.28-.297.264-.128.719-.146 1.171-.146l.252.001c.466.005.608.034.8.08.433.104.42.435.39 1.16a17.91 17.91 0 0 0-.018.756c0 .064-.002.133-.004.205-.01.372-.022.794.221.95.024.015.05.023.08.023.157 0 .478-.227 1.114-1.307.357-.606.63-1.33.634-1.337 0-.001.06-.128.15-.184a.357.357 0 0 1 .176-.041c.028 0 .046.002.046.002l1.714-.01s.062-.007.145-.007c.145 0 .398.023.454.178.09.25-.211.839-.894 1.748-.146.195-.275.362-.389.509-.768.993-.768.993.039 1.74l.027.026c.384.357.89.87 1.122 1.292a.533.533 0 0 0 .01.018c.106.176.13.322.07.436-.113.215-.485.24-.489.24l-1.522.021s-.032.006-.086.006c-.123 0-.373-.03-.672-.237-.225-.154-.444-.405-.655-.647-.287-.329-.558-.64-.794-.64zM18 13.408v-8.07A4.974 4.974 0 0 0 13.032.37h-8.07A4.974 4.974 0 0 0-.005 5.34v8.069a4.974 4.974 0 0 0 4.969 4.968h8.069A4.974 4.974 0 0 0 18 13.408z"/></g></g></svg>