<svg id="Слой_1" data-name="Слой 1" xmlns="http://www.w3.org/2000/svg" viewBox="0 0 484.43 136.17"><defs><style>.cls-1{fill:#fff;}.cls-2{fill:#f4144a;}</style></defs><title>Logo</title><g id="Group_1451" data-name="Group 1451"><g id="Group_1450" data-name="Group 1450"><path id="Path_1265" data-name="Path 1265" class="cls-1" d="M157.2,66.26c-.27-.67-.47-1.2-.79-1.22s-.37.54-.78.61c-.57.11-.82-.84-1.74-1-.67-.14-.78.3-1.57.17-.63-.11-.67-.39-1.57-.7a7.43,7.43,0,0,0-1.31-.27,16.69,16.69,0,0,0-2-.17c-1.82,0-3.74-.06-4.45,1a6.46,6.46,0,0,0-.27.6,5.3,5.3,0,0,1-1.22,2.1c-.89.65-2.47.09-3.31-.44a8.06,8.06,0,0,1-2-2,0,0,0,0,0-.06,0l-1.18.85c-.66.48-1.15.52-1.23.88s.24.44.27.79c.05.78-1.37,1.47-1.74,1.65-1.45.71-1.82.26-3,1-.82.51-1,.94-1.56,1-.81,0-1.45-.72-1.66-.53s.07.29,0,.61c-.12.5-.8.8-1.22.87a1.82,1.82,0,0,1-1.49-.35c-.25-.27-.21-.49-.53-.7a1.63,1.63,0,0,0-.79-.17,3.87,3.87,0,0,1-1.74-.87c-.69-.48-.59-.59-1.13-.87a1.79,1.79,0,0,0-1.49-.27c-.2.1-.19.19-.34.27-.65.26-1.82-1-2.44-1.92l-.19-.27c-.5.69-1,1.38-1.57,2.08-1,1.2-2,2.4-3.07,3.59-.86.93-1.76,1.87-2.67,2.74-1.45,1.4-2.49,2.28-2.65,2.4l0,0a5.36,5.36,0,0,1-1.74,1,5.81,5.81,0,0,1-1.81.29h0a5.87,5.87,0,0,1-1.82-.29,5.59,5.59,0,0,1-1.73-.94l0,0c-.11-.09-1.17-1-2.67-2.42-.91-.88-1.81-1.8-2.67-2.74-1.09-1.17-2.12-2.38-3.07-3.59a46.94,46.94,0,0,1-5.85-9.28c-.42-.9-.8-1.8-1.12-2.69s-.63-1.89-.87-2.81a24.44,24.44,0,0,1-.57-2.93,21.83,21.83,0,0,1-.21-3A20.72,20.72,0,0,1,81,44.05a20.2,20.2,0,0,1,1.21-3.87,21.09,21.09,0,0,1,1.73-3.25,2.63,2.63,0,0,1-.56-.38c-.7-.63-.73-1-1.31-1.23a2.77,2.77,0,0,0-1.66,0c-.94.22-1,.6-1.48.54s-.45-.42-1.66-1.31a1.53,1.53,0,0,0-1.13-.43.67.67,0,0,0-.43.16c-.56.52.59,1.72.17,3.23-.12.43-.33.76-.17,1.13s.55.37.69.7c.24.51-.53,1.07-1,2-.67,1.49-.22,3.49.54,3.74.37.13.56-.26,1.31-.34,1.14-.13,2.32.64,2.26,1s-.69.3-1.83.61a19.11,19.11,0,0,0-3.14,1.31c-1.83.86-2.37,1.33-5.31,3A48.46,48.46,0,0,1,65,53.1c-2.48,1.11-3.15.93-5.14,1.74a26.77,26.77,0,0,0-6,4c-.53.4-2.63,1.85-6.8,4.8,0,0-2.56,1.81-2.27,3.05a2,2,0,0,1,.09.35c.18.89-.07,1.33.18,1.56s.14,0,.53.09a10.19,10.19,0,0,1,1.13.44,4.41,4.41,0,0,0,.88.17,2,2,0,0,1,.69.09c.29.12.27.25.54.35a1,1,0,0,0,.87-.09c.23-.17.16-.32.43-.54s.34-.08.61-.26.31-.37.61-.61a2.09,2.09,0,0,1,.7-.35,5.91,5.91,0,0,1,2.44-.09,10.33,10.33,0,0,1,1.92.27,6,6,0,0,1,1.83,1c1.87,1.47,2.62,3.2,3.57,3.75a1.83,1.83,0,0,1,.61.53,4.57,4.57,0,0,1,.35.7c.15.23.31.29,1.4.78.92.41,1,.47,1.13.61.24.31.24.55.54.7a.76.76,0,0,0,.69,0c.29-.17.15-.44.44-.7A1.66,1.66,0,0,1,68,75.23a2,2,0,0,0,.44,0c.48-.13.48-.62.87-.79s.78.1,1.22.35a4.35,4.35,0,0,1,1.22,1c1.89,2.34,1.8,2,2.18,2.62a15.18,15.18,0,0,1,1.31,4.62,16.28,16.28,0,0,1,.17,3.49c0,.53-.08,1.24-.53,1.48s-.85-.08-1,.17.1.5,0,1a1.55,1.55,0,0,1-.53.79c-.67.8.4,2.14.35,3.84A4.17,4.17,0,0,1,72.12,97c-1.19.79-2.77.41-2.88,1,0,.19.12.38.27.54a26.61,26.61,0,0,0,2.61,2.7c1.18.53,1.8-.37,3.14.26a1.87,1.87,0,0,1,1,.79c.36.71-.18,1.39.17,1.74s.85-.14,1.49.18.49,1,1,1.3,1.12-.37,2.35-.53c1.75-.22,2.45,1,3.93.53.53-.18.36-.3,1.13-.69,1.69-.85,2.55-.27,3.23-1s0-1.74.78-2.36,1.73.1,2.44-.61c.42-.42.21-.8.7-1.3a3,3,0,0,1,1.57-.7c1.46-.51,1.43-2.83,2.26-4.54s3-2.7,7.15-4.36a20.2,20.2,0,0,1,7.5-1.66,3.35,3.35,0,0,1,1.83.09c.87.44.89,1.33,1.48,1.39s1.35-.93,1.66-1.66c.41-1,0-1.31.44-1.83.56-.69,1.49-.36,2.26-1.22a2.19,2.19,0,0,0,.44-.69c.2-.54,0-.7.17-1,.37-.62,2-.69,2.79,0,.11.09.3.29.35.26s-.49-.62-.35-1c.18-.57,1.42-.47,1.48-.87s-.51-.38-.69-.79c-.4-.82.92-2.67,2.61-3.47a6.82,6.82,0,0,1,5.49.27c1.19.48,3.24,1.3,3.74,3,.12.38.24,1.06.61,1.13s.56-.57,1.22-.69.86.39,1.57.26a2.29,2.29,0,0,0,.87-.43,9.69,9.69,0,0,0,1-.87c1.19-.87,3.28,1.4,5.32.61.49-.2.37-.33,1-.61,1.07-.46,1.57-.18,3.06-.44.85-.15,2-.36,2.35-1.13a1.06,1.06,0,0,0,.09-.7c-.11-.37-.42-.45-.7-.78a2.59,2.59,0,0,1-.43-1.4,4.15,4.15,0,0,1,0-1.92c.26-1,.86-1.3.69-1.92-.1-.39-.4-.46-.34-.69.1-.52,1.56-.37,1.74-1,.09-.32-.27-.47-.35-1.14,0-.1-.1-.89.27-1.13s.8.35,1.83.54c.06,0,1.6.25,2-.44C157.74,67.68,157.57,67.21,157.2,66.26Z"/><path id="Path_1266" data-name="Path 1266" class="cls-1" d="M101.18,54.11a5.91,5.91,0,0,0,5.07-2.92c-1.15-1.65-1.2-1.43-2-2.62-1.87-2.92-2-5-2.79-5s-.9,1.59-1.83,1.75c-.72.12-1.55-.84-2.18-1.75a5.9,5.9,0,0,0,3.7,10.51Z"/></g><path id="Subtraction_8" data-name="Subtraction 8" class="cls-2" d="M101.17,76a3.07,3.07,0,0,1-.9-.14,2.69,2.69,0,0,1-.8-.43h0s-1-.87-2.49-2.27c-.87-.84-1.73-1.72-2.56-2.62-1-1.12-2-2.27-2.94-3.42A44.82,44.82,0,0,1,86,58.41c-.38-.82-.72-1.65-1-2.45a26.07,26.07,0,0,1-.78-2.53,23.23,23.23,0,0,1-.51-2.59,19.52,19.52,0,0,1-.18-2.64,17.67,17.67,0,0,1,.36-3.55,17.58,17.58,0,0,1,2.66-6.31,17.58,17.58,0,0,1,4.76-4.76,18.14,18.14,0,0,1,3-1.63,17.17,17.17,0,0,1,3.31-1A17.53,17.53,0,0,1,111,33.58a17.35,17.35,0,0,1,2.61,2.15,18.6,18.6,0,0,1,2.16,2.61,17.38,17.38,0,0,1,1.62,3,16.5,16.5,0,0,1,1,3.31,17.67,17.67,0,0,1,.36,3.55,19.52,19.52,0,0,1-.18,2.64,23.19,23.19,0,0,1-.5,2.59,25.51,25.51,0,0,1-.79,2.53c-.29.8-.63,1.63-1,2.45a43.88,43.88,0,0,1-5.48,8.69c-.91,1.15-1.89,2.3-2.94,3.42-.82.9-1.69,1.78-2.55,2.62-1.45,1.4-2.45,2.23-2.49,2.27h0a2.62,2.62,0,0,1-.81.43A2.72,2.72,0,0,1,101.17,76Zm0-36.65a8.87,8.87,0,1,0,8.88,8.87,8.88,8.88,0,0,0-8.88-8.87Z"/></g><g id="Group_1452" data-name="Group 1452"><path id="Path_1267" data-name="Path 1267" class="cls-1" d="M186.34,84.11V53.76h7.21V66.1h.13l10.85-12.34h9.17l-13.07,14,13.85,16.38h-9.57l-11.27-14h-.09v14Z"/><path id="Path_1268" data-name="Path 1268" class="cls-1" d="M214.46,84.11V53.76h11.15a15,15,0,0,1,8.64,2.2,8,8,0,0,1,3.23,7.14,8.77,8.77,0,0,1-1.73,5.57,9.07,9.07,0,0,1-4.33,3.11,18.45,18.45,0,0,1-6,.88h-3.65V84.11Zm7.33-17.28h3.09q5.26,0,5.27-3.68,0-3.48-5.14-3.48H221.8Z"/><path id="Path_1269" data-name="Path 1269" class="cls-1" d="M238.7,84.11V53.76H246V64.9h3.86a14.57,14.57,0,0,1,8.53,2.32,8.22,8.22,0,0,1,3.3,7.24,8.3,8.3,0,0,1-3.35,7.24,14.06,14.06,0,0,1-8.44,2.41ZM246,78.28h3.3q5.1,0,5.1-3.86c0-2.54-1.7-3.82-5.1-3.82H246Zm17.26,5.83V53.76h7.29V84.11Z"/><path id="Path_1270" data-name="Path 1270" class="cls-1" d="M272.47,84.11V53.76h10.42l6.9,19.46H290l6.6-19.46h10.59V84.11H300l.17-21.48H300l-7.88,21.48H287l-7.67-21.48h-.13l.17,21.48Z"/><path id="Path_1271" data-name="Path 1271" class="cls-1" d="M316.45,87.58V77.83h2.66q4.11-5.1,4.12-16.38V53.73h23V77.82h3.34v9.76h-6.43V84.11H322.89v3.5ZM327,77.83h11.83V60H330.3V62.4A29.07,29.07,0,0,1,327,77.84Z"/><path id="Path_1272" data-name="Path 1272" class="cls-1" d="M351,84.11V53.76h11.14a15,15,0,0,1,8.64,2.2A8,8,0,0,1,374,63.1a8.77,8.77,0,0,1-1.74,5.57A9.07,9.07,0,0,1,368,71.78a18.37,18.37,0,0,1-6,.88h-3.65V84.11Zm7.32-17.28h3.09q5.28,0,5.28-3.68,0-3.48-5.15-3.48h-3.21Z"/><path id="Path_1273" data-name="Path 1273" class="cls-1" d="M375.91,84.11V53.76h7.25v20h.17l11.66-20h7.72V84.11h-7.24V64.6h-.13L383.76,84.11Z"/><path id="Path_1274" data-name="Path 1274" class="cls-1" d="M405,84.11V53.76h10.42l6.9,19.46h.17l6.61-19.46h10.58V84.11h-7.16l.17-21.48h-.12l-7.89,21.48h-5.15L411.9,62.63h-.13l.17,21.48Z"/></g></svg>